<?xml version="1.0" standalone="no"?>
<!DOCTYPE svg PUBLIC "-//W3C//DTD SVG 20010904//EN"
 "http://www.w3.org/TR/2001/REC-SVG-20010904/DTD/svg10.dtd">
<svg version="1.0" xmlns="http://www.w3.org/2000/svg"
 width="362.000000pt" height="362.000000pt" viewBox="0 0 362.000000 362.000000"
 preserveAspectRatio="xMidYMid meet">
<metadata>
Created by potrace 1.11, written by Peter Selinger 2001-2013
</metadata>
<g transform="translate(0.000000,362.000000) scale(0.100000,-0.100000)"
fill="#000000" stroke="none">
<path d="M2284 3588 c-9 -17 -24 -46 -34 -62 -9 -17 -37 -69 -63 -117 l-46
-85 -83 2 c-99 2 -530 14 -678 19 -252 8 -610 18 -672 18 l-68 1 -122 -121
c-68 -66 -181 -176 -251 -244 l-128 -124 79 -175 c80 -178 89 -198 160 -352
l40 -87 -93 -88 -94 -88 -4 -430 -4 -430 38 -110 c20 -60 65 -188 98 -282 34
-95 87 -248 120 -340 84 -239 173 -488 175 -490 1 -1 51 9 112 23 60 14 120
27 134 30 13 3 63 14 110 25 47 11 92 22 100 24 14 3 235 54 635 145 l171 39
354 237 c195 130 360 242 366 250 6 7 19 69 29 137 l19 123 30 2 c17 1 56 7
86 12 30 5 78 12 105 16 28 3 59 8 70 10 11 3 36 7 55 9 19 3 51 8 70 11 19 3
49 8 65 10 17 2 45 6 63 9 17 3 49 8 70 11 46 7 49 10 56 59 3 22 13 74 22
115 8 41 19 95 24 120 5 25 11 59 15 75 8 42 46 235 51 265 2 14 6 35 9 47 4
18 -82 148 -388 585 -216 310 -405 580 -419 601 l-25 38 153 282 c84 155 154
287 154 292 0 6 -116 11 -325 13 l-324 2 -17 -32z"/>
</g>
</svg>
